<svg width="48" height="48" viewBox="0 0 48 48" fill="none" xmlns="http://www.w3.org/2000/svg">
<circle cx="24" cy="24" r="24" fill="#FF4B55"/>
<path d="M22.49 27.95L21.68 20V14H26.33V20L25.55 27.95H22.49ZM25.82 34.64C25.32 35.14 24.72 35.39 24.02 35.39C23.32 35.39 22.72 35.14 22.22 34.64C21.72 34.14 21.47 33.54 21.47 32.84C21.47 32.14 21.72 31.54 22.22 31.04C22.72 30.54 23.32 30.29 24.02 30.29C24.72 30.29 25.32 30.54 25.82 31.04C26.32 31.54 26.57 32.14 26.57 32.84C26.57 33.54 26.32 34.14 25.82 34.64Z" fill="white"/>
</svg>
