<svg width="17" height="18" viewBox="0 0 17 18" fill="none" xmlns="http://www.w3.org/2000/svg">
<path fill-rule="evenodd" clip-rule="evenodd" d="M9.74545 10.84C10.4312 10.1294 11.3761 9.72777 12.3636 9.72729C14.3719 9.72729 16 11.3553 16 13.3637C16 15.372 14.3719 17 12.3636 17C10.3553 17 8.72727 15.372 8.72727 13.3637C8.72584 13.171 8.74289 12.9786 8.77818 12.7891L6.25455 11.5237C5.22539 12.5913 3.651 12.9271 2.27579 12.3722C0.900583 11.8173 9.15527e-05 10.483 9.15527e-05 9.00002C9.15527e-05 7.51708 0.900583 6.18271 2.27579 5.62782C3.651 5.07293 5.22539 5.40871 6.25455 6.47638L8.77818 5.21093C8.74289 5.02148 8.72584 4.82909 8.72727 4.63638C8.72732 2.89528 9.96151 1.39852 11.6707 1.06675C13.3799 0.734968 15.0844 1.66128 15.7359 3.27592C16.3873 4.89056 15.8028 6.74039 14.3419 7.68761C12.8811 8.63483 10.9537 8.41361 9.74545 7.16002L7.22182 8.42547C7.2897 8.8055 7.2897 9.19454 7.22182 9.57456L9.74545 10.84ZM12.7362 3.22959C12.0284 3.04361 11.2926 3.41249 11.0182 4.09093C10.9452 4.26347 10.9081 4.44905 10.9091 4.63638C10.9104 5.29581 11.3551 5.87187 11.9927 6.04002C12.1131 6.07572 12.2381 6.09289 12.3636 6.09093C13.0955 6.09241 13.7145 5.54991 13.8089 4.8242C13.9034 4.09848 13.444 3.41557 12.7362 3.22959ZM4.00727 10.4037C3.88694 10.4394 3.76187 10.4565 3.63636 10.4546C3.04418 10.4552 2.51131 10.0951 2.29091 9.54547C2.14546 9.19638 2.14546 8.80366 2.29091 8.45457C2.51131 7.90492 3.04418 7.54487 3.63636 7.54547C3.76187 7.54352 3.88694 7.56068 4.00727 7.59638C4.64561 7.76344 5.09084 8.34018 5.09084 9.00002C5.09084 9.65986 4.64561 10.2366 4.00727 10.4037ZM11.0182 13.9091C11.2386 14.4588 11.7715 14.8188 12.3636 14.8182C13.167 14.8182 13.8182 14.167 13.8182 13.3637C13.8182 12.5603 13.167 11.9091 12.3636 11.9091C12.2381 11.9072 12.1131 11.9243 11.9927 11.96C11.3551 12.1282 10.9104 12.7042 10.9091 13.3637C10.9081 13.551 10.9452 13.7366 11.0182 13.9091Z" fill="#1E2228"/>
<path d="M12.3636 9.72729V9.46063H12.3635L12.3636 9.72729ZM9.74545 10.84L9.62592 11.0784L9.8012 11.1663L9.93735 11.0252L9.74545 10.84ZM8.72727 13.3637H8.99395L8.99393 13.3617L8.72727 13.3637ZM8.77818 12.7891L9.04034 12.8379L9.07709 12.6407L8.89771 12.5507L8.77818 12.7891ZM6.25455 11.5237L6.37408 11.2853L6.19871 11.1973L6.06255 11.3386L6.25455 11.5237ZM6.25455 6.47638L6.06255 6.66145L6.19871 6.8027L6.37408 6.71476L6.25455 6.47638ZM8.77818 5.21093L8.89771 5.4493L9.07709 5.35936L9.04034 5.16209L8.77818 5.21093ZM8.72727 4.63638L8.99394 4.63836V4.63639L8.72727 4.63638ZM11.6707 1.06675L11.7215 1.32853L11.6707 1.06675ZM15.7359 3.27592L15.4886 3.37569L15.7359 3.27592ZM9.74545 7.16002L9.93746 6.97496L9.8013 6.8337L9.62592 6.92164L9.74545 7.16002ZM7.22182 8.42547L7.10229 8.1871L6.9243 8.27635L6.95931 8.47236L7.22182 8.42547ZM7.22182 9.57456L6.95931 9.52768L6.9243 9.72369L7.10229 9.81294L7.22182 9.57456ZM11.0182 4.09093L11.2638 4.1948L11.2654 4.19093L11.0182 4.09093ZM10.9091 4.63638L11.1758 4.63587L11.1758 4.63498L10.9091 4.63638ZM11.9927 6.04002L12.0686 5.78425L12.0607 5.78217L11.9927 6.04002ZM12.3636 6.09093L12.3642 5.82422L12.3595 5.82429L12.3636 6.09093ZM13.8089 4.8242L14.0734 4.85863L13.8089 4.8242ZM3.63636 10.4546L3.64052 10.1879L3.63609 10.1879L3.63636 10.4546ZM4.00727 10.4037L3.93972 10.1455L3.93143 10.148L4.00727 10.4037ZM2.29091 9.54547L2.53844 9.44622L2.53706 9.44291L2.29091 9.54547ZM2.29091 8.45457L2.53709 8.55714L2.53842 8.55381L2.29091 8.45457ZM3.63636 7.54547L3.63609 7.81218L3.64052 7.81211L3.63636 7.54547ZM4.00727 7.59638L3.93139 7.85217L3.93976 7.85436L4.00727 7.59638ZM12.3636 14.8182V14.5515H12.3634L12.3636 14.8182ZM11.0182 13.9091L11.2657 13.8098L11.2638 13.8053L11.0182 13.9091ZM12.3636 11.9091L12.3595 12.1758H12.3636V11.9091ZM11.9927 11.96L12.0608 12.218L12.0686 12.2157L11.9927 11.96ZM10.9091 13.3637L11.1758 13.3651L11.1758 13.3642L10.9091 13.3637ZM12.3635 9.46063C11.3037 9.46114 10.2895 9.89216 9.55356 10.6549L9.93735 11.0252C10.5728 10.3666 11.4486 9.9944 12.3638 9.99396L12.3635 9.46063ZM16.2667 13.3637C16.2667 11.2081 14.5192 9.46063 12.3636 9.46063V9.99396C14.2247 9.99396 15.7333 11.5026 15.7333 13.3637H16.2667ZM12.3636 17.2667C14.5192 17.2667 16.2667 15.5192 16.2667 13.3637H15.7333C15.7333 15.2247 14.2247 16.7334 12.3636 16.7334V17.2667ZM8.46061 13.3637C8.46061 15.5192 10.2081 17.2667 12.3636 17.2667V16.7334C10.5026 16.7334 8.99394 15.2247 8.99394 13.3637H8.46061ZM8.51603 12.7403C8.47761 12.9465 8.45906 13.1559 8.46061 13.3656L8.99393 13.3617C8.99263 13.186 9.00817 13.0106 9.04034 12.8379L8.51603 12.7403ZM6.13501 11.762L8.65865 13.0275L8.89771 12.5507L6.37408 11.2853L6.13501 11.762ZM2.17601 12.6195C3.65207 13.2151 5.34191 12.8547 6.44654 11.7087L6.06255 11.3386C5.10887 12.328 3.64993 12.6391 2.37557 12.1249L2.17601 12.6195ZM-0.266575 9.00002C-0.266575 10.5917 0.699952 12.0239 2.17601 12.6195L2.37557 12.1249C1.10121 11.6107 0.266758 10.3742 0.266758 9.00002H-0.266575ZM2.17601 5.38052C0.699952 5.9761 -0.266575 7.40833 -0.266575 9.00002H0.266758C0.266758 7.62583 1.10121 6.38931 2.37557 5.87511L2.17601 5.38052ZM6.44654 6.29132C5.34191 5.14534 3.65207 4.78494 2.17601 5.38052L2.37557 5.87511C3.64993 5.36092 5.10887 5.67207 6.06255 6.66145L6.44654 6.29132ZM8.65865 4.97255L6.13501 6.23801L6.37408 6.71476L8.89771 5.4493L8.65865 4.97255ZM8.46061 4.63441C8.45906 4.84415 8.47761 5.05356 8.51603 5.25976L9.04034 5.16209C9.00817 4.9894 8.99263 4.81402 8.99393 4.63836L8.46061 4.63441ZM11.6199 0.804965C9.78535 1.16107 8.46065 2.7676 8.46061 4.63638L8.99394 4.63639C8.99398 3.02297 10.1377 1.63597 11.7215 1.32853L11.6199 0.804965ZM15.9832 3.17614C15.284 1.4431 13.4544 0.448857 11.6199 0.804965L11.7215 1.32853C13.3054 1.02108 14.8849 1.87946 15.4886 3.37569L15.9832 3.17614ZM14.487 7.91136C16.055 6.89468 16.6824 4.90919 15.9832 3.17614L15.4886 3.37569C16.0922 4.87192 15.5506 6.58611 14.1969 7.46386L14.487 7.91136ZM9.55345 7.34508C10.8503 8.6906 12.919 8.92805 14.487 7.91136L14.1969 7.46386C12.8431 8.34162 11.0571 8.13662 9.93746 6.97496L9.55345 7.34508ZM7.34135 8.66385L9.86499 7.3984L9.62592 6.92164L7.10229 8.1871L7.34135 8.66385ZM7.48433 9.62145C7.55775 9.21042 7.55775 8.78962 7.48433 8.37859L6.95931 8.47236C7.02164 8.82137 7.02164 9.17867 6.95931 9.52768L7.48433 9.62145ZM9.86499 10.6016L7.34135 9.33619L7.10229 9.81294L9.62592 11.0784L9.86499 10.6016ZM11.2654 4.19093C11.4895 3.63687 12.0904 3.33562 12.6684 3.4875L12.804 2.97168C11.9664 2.7516 11.0957 3.18811 10.771 3.99093L11.2654 4.19093ZM11.1758 4.63498C11.175 4.4838 11.2049 4.33403 11.2638 4.19479L10.7726 3.98707C10.6855 4.19291 10.6413 4.4143 10.6424 4.63779L11.1758 4.63498ZM12.0607 5.78217C11.54 5.64484 11.1768 5.17439 11.1758 4.63587L10.6424 4.6369C10.6439 5.41722 11.1702 6.09889 11.9247 6.29787L12.0607 5.78217ZM12.3595 5.82429C12.261 5.82583 12.163 5.81237 12.0686 5.78437L11.9169 6.29567C12.0632 6.33907 12.2152 6.35994 12.3678 6.35756L12.3595 5.82429ZM13.5445 4.78977C13.4673 5.38243 12.9618 5.82547 12.3642 5.82426L12.3631 6.35759C13.2291 6.35935 13.9616 5.71739 14.0734 4.85863L13.5445 4.78977ZM12.6684 3.4875C13.2465 3.63938 13.6217 4.1971 13.5445 4.78977L14.0734 4.85863C14.1852 3.99987 13.6416 3.19175 12.804 2.97168L12.6684 3.4875ZM3.63221 10.7212C3.78478 10.7236 3.93683 10.7027 4.08312 10.6593L3.93143 10.148C3.83705 10.176 3.73895 10.1895 3.64052 10.1879L3.63221 10.7212ZM2.0434 9.64472C2.30438 10.2956 2.93539 10.7219 3.63664 10.7212L3.63609 10.1879C3.15296 10.1884 2.71823 9.89465 2.53842 9.44623L2.0434 9.64472ZM2.04476 8.352C1.87195 8.76673 1.87195 9.23331 2.04476 9.64804L2.53706 9.44291C2.41896 9.15946 2.41896 8.84058 2.53706 8.55713L2.04476 8.352ZM3.63664 7.27881C2.93539 7.27809 2.30438 7.70445 2.0434 8.35532L2.53842 8.55381C2.71823 8.10539 3.15297 7.81165 3.63609 7.81214L3.63664 7.27881ZM4.08312 7.34073C3.93683 7.29733 3.78478 7.27646 3.63221 7.27884L3.64052 7.81211C3.73896 7.81057 3.83705 7.82404 3.93143 7.85204L4.08312 7.34073ZM5.3575 9.00002C5.3575 8.21891 4.83045 7.53617 4.07479 7.3384L3.93976 7.85436C4.46077 7.99072 4.82417 8.46146 4.82417 9.00002H5.3575ZM4.07479 10.6616C4.83045 10.4639 5.3575 9.78113 5.3575 9.00002H4.82417C4.82417 9.53858 4.46077 10.0093 3.93976 10.1457L4.07479 10.6616ZM12.3634 14.5515C11.8802 14.552 11.4455 14.2583 11.2657 13.8099L10.7707 14.0084C11.0317 14.6592 11.6627 15.0856 12.3639 15.0849L12.3634 14.5515ZM13.5515 13.3637C13.5515 14.0197 13.0197 14.5515 12.3636 14.5515V15.0849C13.3142 15.0849 14.0848 14.3143 14.0848 13.3637H13.5515ZM12.3636 12.1758C13.0197 12.1758 13.5515 12.7076 13.5515 13.3637H14.0848C14.0848 12.4131 13.3142 11.6424 12.3636 11.6424V12.1758ZM12.0686 12.2157C12.163 12.1877 12.261 12.1742 12.3595 12.1757L12.3678 11.6425C12.2152 11.6401 12.0632 11.661 11.9169 11.7044L12.0686 12.2157ZM11.1758 13.3642C11.1768 12.8256 11.54 12.3552 12.0607 12.2179L11.9247 11.7022C11.1702 11.9011 10.6439 12.5828 10.6424 13.3631L11.1758 13.3642ZM11.2638 13.8053C11.2049 13.666 11.175 13.5162 11.1758 13.3651L10.6424 13.3623C10.6413 13.5857 10.6855 13.8071 10.7726 14.013L11.2638 13.8053Z" fill="white"/>
</svg>
