<svg width="20" height="20" viewBox="0 0 20 20" fill="none" xmlns="http://www.w3.org/2000/svg">
<circle cx="10" cy="10" r="10" fill="#939599"/>
<path d="M7.324 14V12.764L10.192 9.812C10.832 9.14 11.152 8.58 11.152 8.132C11.152 7.804 11.048 7.54 10.84 7.34C10.64 7.14 10.38 7.04 10.06 7.04C9.428 7.04 8.96 7.368 8.656 8.024L7.264 7.208C7.528 6.632 7.908 6.192 8.404 5.888C8.9 5.584 9.444 5.432 10.036 5.432C10.796 5.432 11.448 5.672 11.992 6.152C12.536 6.624 12.808 7.264 12.808 8.072C12.808 8.944 12.348 9.84 11.428 10.76L9.784 12.404H12.94V14H7.324Z" fill="white"/>
</svg>
