<svg width="20" height="20" viewBox="0 0 20 20" fill="none" xmlns="http://www.w3.org/2000/svg">
<circle cx="10" cy="10" r="10" fill="#939599"/>
<path d="M11.236 9.008C11.804 9.176 12.264 9.472 12.616 9.896C12.976 10.312 13.156 10.816 13.156 11.408C13.156 12.272 12.864 12.948 12.28 13.436C11.704 13.924 10.996 14.168 10.156 14.168C9.5 14.168 8.912 14.02 8.392 13.724C7.88 13.42 7.508 12.976 7.276 12.392L8.692 11.576C8.9 12.224 9.388 12.548 10.156 12.548C10.58 12.548 10.908 12.448 11.14 12.248C11.38 12.04 11.5 11.76 11.5 11.408C11.5 11.064 11.38 10.788 11.14 10.58C10.908 10.372 10.58 10.268 10.156 10.268H9.796L9.16 9.308L10.816 7.148H7.528V5.6H12.808V6.968L11.236 9.008Z" fill="white"/>
</svg>
